<svg width="34" height="22" viewBox="0 0 34 22" fill="none" xmlns="http://www.w3.org/2000/svg">
<path fill-rule="evenodd" clip-rule="evenodd" d="M9.64838 0.00192392C10.549 -0.0147983 11.4484 0.0775397 12.3269 0.276924C13.0665 0.438406 13.7687 0.738897 14.3963 1.16242C14.9758 1.58357 15.4343 2.14977 15.7259 2.80417C16.0609 3.60887 16.2226 4.47517 16.2002 5.34655C16.2383 6.30334 15.9939 7.25017 15.4976 8.06905C14.9755 8.84246 14.2538 9.46013 13.409 9.85655C14.5554 10.1656 15.5539 10.8736 16.225 11.8531C16.8692 12.8909 17.193 14.0957 17.1559 15.3167C17.1771 16.2902 16.9758 17.2557 16.5674 18.1396C16.1898 18.9106 15.637 19.5826 14.9531 20.1017C14.2491 20.6151 13.4568 20.9949 12.6156 21.2223C11.7433 21.4636 10.8422 21.5848 9.93713 21.5826H0V0.00192392H9.64838ZM9.075 8.73042C9.78266 8.75959 10.4793 8.54775 11.0509 8.12955C11.3246 7.88584 11.5376 7.58148 11.6727 7.24079C11.8078 6.9001 11.8614 6.53252 11.8291 6.16743C11.8474 5.74102 11.7625 5.31649 11.5816 4.92992C11.4282 4.62215 11.1895 4.36491 10.8941 4.1888C10.5949 3.99495 10.2588 3.86526 9.90687 3.80792C9.52508 3.73396 9.13657 3.70032 8.74775 3.70755H4.50175V8.74967H9.075V8.73042ZM9.3225 17.9182C9.75046 17.924 10.1775 17.8778 10.5944 17.7807C10.9753 17.6966 11.3366 17.5402 11.6586 17.3201C11.9741 17.1 12.229 16.804 12.3997 16.4593C12.5977 16.0198 12.6886 15.5396 12.6651 15.0582C12.708 14.6194 12.6499 14.1767 12.4952 13.7639C12.3406 13.3511 12.0934 12.9792 11.7728 12.6767C11.0931 12.1761 10.2602 11.9281 9.41737 11.9754H4.50175V17.9182H9.3225Z" fill="white"/>
<path fill-rule="evenodd" clip-rule="evenodd" d="M23.5675 17.8384C23.9208 18.1659 24.3371 18.4182 24.7909 18.5799C25.2447 18.7415 25.7267 18.8093 26.2075 18.7789C26.9697 18.7982 27.7172 18.5663 28.3346 18.1189C28.8369 17.7923 29.2173 17.3089 29.4167 16.7439H33.0069C32.6243 18.3524 31.6902 19.776 30.3669 20.7672C29.0973 21.6098 27.5971 22.0365 26.0741 21.9882C24.9872 22.0024 23.9084 21.7981 22.902 21.3873C21.9916 21.0076 21.1751 20.4337 20.5095 19.7057C19.8464 18.9428 19.337 18.059 19.0094 17.1028C18.6415 16.034 18.4615 14.9096 18.4772 13.7794C18.4705 12.6682 18.6566 11.5642 19.0272 10.5165C19.5251 9.04271 20.4771 7.76448 21.7466 6.86529C23.0161 5.9661 24.5378 5.49219 26.0934 5.51155C27.2418 5.48754 28.3775 5.75632 29.3934 6.29255C30.3116 6.79608 31.1038 7.50125 31.7102 8.35505C32.3306 9.25094 32.7753 10.2564 33.0206 11.3182C33.2897 12.4583 33.3856 13.6324 33.3052 14.801H22.6119C22.5252 15.899 22.8678 16.9878 23.5675 17.8384ZM28.259 9.63105C27.9598 9.33174 27.5998 9.10004 27.2035 8.95156C26.8072 8.80308 26.3836 8.74127 25.9614 8.7703C25.4012 8.74893 24.8451 8.87305 24.3471 9.13055C23.9524 9.34787 23.6039 9.64027 23.3214 9.9913C23.071 10.3204 22.8844 10.6935 22.7714 11.0913C22.6695 11.4231 22.6058 11.7654 22.5816 12.1116H29.205C29.1473 11.2091 28.8185 10.345 28.2617 9.63242L28.259 9.63105Z" fill="white"/>
<path d="M21.7278 1.44293H30.0273V3.56456H21.7278V1.44293Z" fill="white"/>
</svg>
