<svg width="34" height="34" viewBox="0 0 34 34" fill="none" xmlns="http://www.w3.org/2000/svg">
<path fill-rule="evenodd" clip-rule="evenodd" d="M17 0C7.61498 0 0 7.61498 0 17C0 26.385 7.61498 34 17 34C26.3666 34 34 26.385 34 17C34 7.61498 26.3666 0 17 0ZM28.2288 7.83622C30.257 10.3069 31.474 13.4599 31.5109 16.8709C31.0315 16.7787 26.2375 15.8015 21.4067 16.41C21.2961 16.1703 21.2039 15.9121 21.0933 15.654C20.7983 14.9534 20.4664 14.2343 20.1345 13.5521C25.4816 11.3764 27.9154 8.24187 28.2288 7.83622ZM17 2.50759C20.6876 2.50759 24.0618 3.89045 26.6247 6.15835C26.3666 6.52712 24.1724 9.4588 19.0098 11.3948C16.6312 7.02494 13.9946 3.44794 13.5889 2.89479C14.6768 2.63666 15.82 2.50759 17 2.50759ZM10.8232 3.87202C11.2104 4.38828 13.7918 7.98374 16.2072 12.2614C9.42191 14.0683 3.42951 14.0315 2.78416 14.0315C3.7245 9.53255 6.76682 5.78959 10.8232 3.87202ZM2.47072 17.0184C2.47072 16.8709 2.47072 16.7234 2.47072 16.5759C3.09761 16.5943 10.141 16.6866 17.3872 14.5109C17.8113 15.3221 18.1985 16.1518 18.5672 16.9816C18.3828 17.0369 18.18 17.0922 17.9957 17.1475C10.5098 19.5629 6.52712 26.1638 6.19524 26.7169C3.89045 24.154 2.47072 20.743 2.47072 17.0184ZM17 31.5293C13.6443 31.5293 10.5466 30.3861 8.09435 28.4685C8.35251 27.9339 11.3026 22.2549 19.4891 19.397C19.526 19.3785 19.5445 19.3785 19.5813 19.3601C21.628 24.6518 22.4577 29.0954 22.679 30.3677C20.9273 31.1236 19.0098 31.5293 17 31.5293ZM25.0944 29.0401C24.9469 28.1551 24.1725 23.9143 22.2733 18.6963C26.8276 17.9772 30.8102 19.1573 31.308 19.3232C30.6811 23.3612 28.3579 26.846 25.0944 29.0401Z" fill="white"/>
</svg>
